<?xml version="1.0" encoding="UTF-8"?>
<svg xmlns="http://www.w3.org/2000/svg" xmlns:xlink="http://www.w3.org/1999/xlink" width="63.245553pt" height="63.245553pt" viewBox="0 0 63.245553 63.245553" version="1.1">
<g id="surface8">
<path style=" stroke:none;fill-rule:nonzero;fill:rgb(100%,100%,100%);fill-opacity:1;" d="M 0 0 L 63.246094 0 L 63.246094 63.246094 L 0 63.246094 Z M 0 0 "/>
<path style="fill:none;stroke-width:1;stroke-linecap:butt;stroke-linejoin:miter;stroke:rgb(26.666667%,26.666667%,26.666667%);stroke-opacity:1;stroke-miterlimit:10;" d="M 39.183594 53.246094 L 39.105469 43.214844 "/>
<path style="fill:none;stroke-width:1;stroke-linecap:butt;stroke-linejoin:miter;stroke:rgb(26.666667%,26.666667%,26.666667%);stroke-opacity:1;stroke-miterlimit:10;" d="M 39.183594 53.246094 L 53.246094 38.378906 "/>
<path style="fill:none;stroke-width:1;stroke-linecap:butt;stroke-linejoin:miter;stroke:rgb(26.666667%,26.666667%,26.666667%);stroke-opacity:1;stroke-miterlimit:10;" d="M 39.183594 53.246094 L 17.777344 47.824219 "/>
<path style="fill:none;stroke-width:1;stroke-linecap:butt;stroke-linejoin:miter;stroke:rgb(26.666667%,26.666667%,26.666667%);stroke-opacity:1;stroke-miterlimit:10;" d="M 14.925781 19.09375 L 10 30.636719 "/>
<path style="fill:none;stroke-width:1;stroke-linecap:butt;stroke-linejoin:miter;stroke:rgb(26.666667%,26.666667%,26.666667%);stroke-opacity:1;stroke-miterlimit:10;" d="M 14.925781 19.09375 L 33.777344 10 "/>
<path style="fill:none;stroke-width:1;stroke-linecap:butt;stroke-linejoin:miter;stroke:rgb(26.666667%,26.666667%,26.666667%);stroke-opacity:1;stroke-miterlimit:10;" d="M 14.925781 19.09375 L 22.324219 35.960938 "/>
<path style="fill:none;stroke-width:1;stroke-linecap:butt;stroke-linejoin:miter;stroke:rgb(26.666667%,26.666667%,26.666667%);stroke-opacity:1;stroke-miterlimit:10;" d="M 39.105469 43.214844 L 53.246094 38.378906 "/>
<path style="fill:none;stroke-width:1;stroke-linecap:butt;stroke-linejoin:miter;stroke:rgb(26.666667%,26.666667%,26.666667%);stroke-opacity:1;stroke-miterlimit:10;" d="M 39.105469 43.214844 L 22.324219 35.960938 "/>
<path style="fill:none;stroke-width:1;stroke-linecap:butt;stroke-linejoin:miter;stroke:rgb(26.666667%,26.666667%,26.666667%);stroke-opacity:1;stroke-miterlimit:10;" d="M 53.246094 38.378906 L 47.308594 21.957031 "/>
<path style="fill:none;stroke-width:1;stroke-linecap:butt;stroke-linejoin:miter;stroke:rgb(26.666667%,26.666667%,26.666667%);stroke-opacity:1;stroke-miterlimit:10;" d="M 17.777344 47.824219 L 10 30.636719 "/>
<path style="fill:none;stroke-width:1;stroke-linecap:butt;stroke-linejoin:miter;stroke:rgb(26.666667%,26.666667%,26.666667%);stroke-opacity:1;stroke-miterlimit:10;" d="M 17.777344 47.824219 L 22.324219 35.960938 "/>
<path style="fill:none;stroke-width:1;stroke-linecap:butt;stroke-linejoin:miter;stroke:rgb(26.666667%,26.666667%,26.666667%);stroke-opacity:1;stroke-miterlimit:10;" d="M 10 30.636719 L 28.984375 20.226562 "/>
<path style="fill:none;stroke-width:1;stroke-linecap:butt;stroke-linejoin:miter;stroke:rgb(26.666667%,26.666667%,26.666667%);stroke-opacity:1;stroke-miterlimit:10;" d="M 47.308594 21.957031 L 33.777344 10 "/>
<path style="fill:none;stroke-width:1;stroke-linecap:butt;stroke-linejoin:miter;stroke:rgb(26.666667%,26.666667%,26.666667%);stroke-opacity:1;stroke-miterlimit:10;" d="M 47.308594 21.957031 L 28.984375 20.226562 "/>
<path style="fill:none;stroke-width:1;stroke-linecap:butt;stroke-linejoin:miter;stroke:rgb(26.666667%,26.666667%,26.666667%);stroke-opacity:1;stroke-miterlimit:10;" d="M 33.777344 10 L 28.984375 20.226562 "/>
<path style="fill-rule:nonzero;fill:rgb(62.745098%,12.54902%,94.117647%);fill-opacity:1;stroke-width:1;stroke-linecap:butt;stroke-linejoin:miter;stroke:rgb(0%,0%,0%);stroke-opacity:1;stroke-miterlimit:10;" d="M 41.183594 53.246094 C 41.183594 55.914062 37.183594 55.914062 37.183594 53.246094 C 37.183594 50.578125 41.183594 50.578125 41.183594 53.246094 "/>
<path style="fill-rule:nonzero;fill:rgb(62.745098%,12.54902%,94.117647%);fill-opacity:1;stroke-width:1;stroke-linecap:butt;stroke-linejoin:miter;stroke:rgb(0%,0%,0%);stroke-opacity:1;stroke-miterlimit:10;" d="M 16.925781 19.09375 C 16.925781 21.761719 12.925781 21.761719 12.925781 19.09375 C 12.925781 16.425781 16.925781 16.425781 16.925781 19.09375 "/>
<path style="fill-rule:nonzero;fill:rgb(62.745098%,12.54902%,94.117647%);fill-opacity:1;stroke-width:1;stroke-linecap:butt;stroke-linejoin:miter;stroke:rgb(0%,0%,0%);stroke-opacity:1;stroke-miterlimit:10;" d="M 41.105469 43.214844 C 41.105469 45.882812 37.105469 45.882812 37.105469 43.214844 C 37.105469 40.546875 41.105469 40.546875 41.105469 43.214844 "/>
<path style="fill-rule:nonzero;fill:rgb(62.745098%,12.54902%,94.117647%);fill-opacity:1;stroke-width:1;stroke-linecap:butt;stroke-linejoin:miter;stroke:rgb(0%,0%,0%);stroke-opacity:1;stroke-miterlimit:10;" d="M 55.246094 38.378906 C 55.246094 41.042969 51.246094 41.042969 51.246094 38.378906 C 51.246094 35.710938 55.246094 35.710938 55.246094 38.378906 "/>
<path style="fill-rule:nonzero;fill:rgb(62.745098%,12.54902%,94.117647%);fill-opacity:1;stroke-width:1;stroke-linecap:butt;stroke-linejoin:miter;stroke:rgb(0%,0%,0%);stroke-opacity:1;stroke-miterlimit:10;" d="M 19.777344 47.824219 C 19.777344 50.492188 15.777344 50.492188 15.777344 47.824219 C 15.777344 45.160156 19.777344 45.160156 19.777344 47.824219 "/>
<path style="fill-rule:nonzero;fill:rgb(100%,64.705882%,0%);fill-opacity:1;stroke-width:1;stroke-linecap:butt;stroke-linejoin:miter;stroke:rgb(0%,0%,0%);stroke-opacity:1;stroke-miterlimit:10;" d="M 12 30.636719 C 12 33.304688 8 33.304688 8 30.636719 C 8 27.96875 12 27.96875 12 30.636719 "/>
<path style="fill-rule:nonzero;fill:rgb(100%,64.705882%,0%);fill-opacity:1;stroke-width:1;stroke-linecap:butt;stroke-linejoin:miter;stroke:rgb(0%,0%,0%);stroke-opacity:1;stroke-miterlimit:10;" d="M 49.308594 21.957031 C 49.308594 24.625 45.308594 24.625 45.308594 21.957031 C 45.308594 19.289062 49.308594 19.289062 49.308594 21.957031 "/>
<path style="fill-rule:nonzero;fill:rgb(100%,64.705882%,0%);fill-opacity:1;stroke-width:1;stroke-linecap:butt;stroke-linejoin:miter;stroke:rgb(0%,0%,0%);stroke-opacity:1;stroke-miterlimit:10;" d="M 35.777344 10 C 35.777344 12.667969 31.777344 12.667969 31.777344 10 C 31.777344 7.332031 35.777344 7.332031 35.777344 10 "/>
<path style="fill-rule:nonzero;fill:rgb(100%,64.705882%,0%);fill-opacity:1;stroke-width:1;stroke-linecap:butt;stroke-linejoin:miter;stroke:rgb(0%,0%,0%);stroke-opacity:1;stroke-miterlimit:10;" d="M 24.324219 35.960938 C 24.324219 38.625 20.324219 38.625 20.324219 35.960938 C 20.324219 33.292969 24.324219 33.292969 24.324219 35.960938 "/>
<path style="fill-rule:nonzero;fill:rgb(100%,64.705882%,0%);fill-opacity:1;stroke-width:1;stroke-linecap:butt;stroke-linejoin:miter;stroke:rgb(0%,0%,0%);stroke-opacity:1;stroke-miterlimit:10;" d="M 30.984375 20.226562 C 30.984375 22.894531 26.984375 22.894531 26.984375 20.226562 C 26.984375 17.558594 30.984375 17.558594 30.984375 20.226562 "/>
</g>
</svg>
