<?xml version="1.0" encoding="UTF-8"?>
<svg xmlns="http://www.w3.org/2000/svg" xmlns:xlink="http://www.w3.org/1999/xlink" width="69.282032pt" height="69.282032pt" viewBox="0 0 69.282032 69.282032" version="1.1">
<g id="surface2">
<path style=" stroke:none;fill-rule:nonzero;fill:rgb(100%,100%,100%);fill-opacity:1;" d="M 0 0 L 69.28125 0 L 69.28125 69.28125 L 0 69.28125 Z M 0 0 "/>
<path style="fill:none;stroke-width:1;stroke-linecap:butt;stroke-linejoin:miter;stroke:rgb(26.666667%,26.666667%,26.666667%);stroke-opacity:1;stroke-miterlimit:10;" d="M 49.125 53.8125 L 58.078125 46.445312 "/>
<path style="fill:none;stroke-width:1;stroke-linecap:butt;stroke-linejoin:miter;stroke:rgb(26.666667%,26.666667%,26.666667%);stroke-opacity:1;stroke-miterlimit:10;" d="M 49.125 53.8125 L 39.839844 59.28125 "/>
<path style="fill:none;stroke-width:1;stroke-linecap:butt;stroke-linejoin:miter;stroke:rgb(26.666667%,26.666667%,26.666667%);stroke-opacity:1;stroke-miterlimit:10;" d="M 49.125 53.8125 L 39.078125 35.636719 "/>
<path style="fill:none;stroke-width:1;stroke-linecap:butt;stroke-linejoin:miter;stroke:rgb(26.666667%,26.666667%,26.666667%);stroke-opacity:1;stroke-miterlimit:10;" d="M 27.011719 20.140625 L 25.648438 47.15625 "/>
<path style="fill:none;stroke-width:1;stroke-linecap:butt;stroke-linejoin:miter;stroke:rgb(26.666667%,26.666667%,26.666667%);stroke-opacity:1;stroke-miterlimit:10;" d="M 27.011719 20.140625 L 11.179688 22.316406 "/>
<path style="fill:none;stroke-width:1;stroke-linecap:butt;stroke-linejoin:miter;stroke:rgb(26.666667%,26.666667%,26.666667%);stroke-opacity:1;stroke-miterlimit:10;" d="M 27.011719 20.140625 L 42.46875 10 "/>
<path style="fill:none;stroke-width:1;stroke-linecap:butt;stroke-linejoin:miter;stroke:rgb(26.666667%,26.666667%,26.666667%);stroke-opacity:1;stroke-miterlimit:10;" d="M 58.078125 46.445312 L 39.839844 59.28125 "/>
<path style="fill:none;stroke-width:1;stroke-linecap:butt;stroke-linejoin:miter;stroke:rgb(26.666667%,26.666667%,26.666667%);stroke-opacity:1;stroke-miterlimit:10;" d="M 58.078125 46.445312 L 59.28125 24.945312 "/>
<path style="fill:none;stroke-width:1;stroke-linecap:butt;stroke-linejoin:miter;stroke:rgb(26.666667%,26.666667%,26.666667%);stroke-opacity:1;stroke-miterlimit:10;" d="M 39.839844 59.28125 L 25.648438 47.15625 "/>
<path style="fill:none;stroke-width:1;stroke-linecap:butt;stroke-linejoin:miter;stroke:rgb(26.666667%,26.666667%,26.666667%);stroke-opacity:1;stroke-miterlimit:10;" d="M 39.078125 35.636719 L 20.679688 33.753906 "/>
<path style="fill:none;stroke-width:1;stroke-linecap:butt;stroke-linejoin:miter;stroke:rgb(26.666667%,26.666667%,26.666667%);stroke-opacity:1;stroke-miterlimit:10;" d="M 39.078125 35.636719 L 49.84375 19.074219 "/>
<path style="fill:none;stroke-width:1;stroke-linecap:butt;stroke-linejoin:miter;stroke:rgb(26.666667%,26.666667%,26.666667%);stroke-opacity:1;stroke-miterlimit:10;" d="M 25.648438 47.15625 L 10 43.097656 "/>
<path style="fill:none;stroke-width:1;stroke-linecap:butt;stroke-linejoin:miter;stroke:rgb(26.666667%,26.666667%,26.666667%);stroke-opacity:1;stroke-miterlimit:10;" d="M 20.679688 33.753906 L 11.179688 22.316406 "/>
<path style="fill:none;stroke-width:1;stroke-linecap:butt;stroke-linejoin:miter;stroke:rgb(26.666667%,26.666667%,26.666667%);stroke-opacity:1;stroke-miterlimit:10;" d="M 20.679688 33.753906 L 10 43.097656 "/>
<path style="fill:none;stroke-width:1;stroke-linecap:butt;stroke-linejoin:miter;stroke:rgb(26.666667%,26.666667%,26.666667%);stroke-opacity:1;stroke-miterlimit:10;" d="M 11.179688 22.316406 L 10 43.097656 "/>
<path style="fill:none;stroke-width:1;stroke-linecap:butt;stroke-linejoin:miter;stroke:rgb(26.666667%,26.666667%,26.666667%);stroke-opacity:1;stroke-miterlimit:10;" d="M 42.46875 10 L 59.28125 24.945312 "/>
<path style="fill:none;stroke-width:1;stroke-linecap:butt;stroke-linejoin:miter;stroke:rgb(26.666667%,26.666667%,26.666667%);stroke-opacity:1;stroke-miterlimit:10;" d="M 42.46875 10 L 49.84375 19.074219 "/>
<path style="fill:none;stroke-width:1;stroke-linecap:butt;stroke-linejoin:miter;stroke:rgb(26.666667%,26.666667%,26.666667%);stroke-opacity:1;stroke-miterlimit:10;" d="M 59.28125 24.945312 L 49.84375 19.074219 "/>
<path style="fill-rule:nonzero;fill:rgb(62.745098%,12.54902%,94.117647%);fill-opacity:1;stroke-width:1;stroke-linecap:butt;stroke-linejoin:miter;stroke:rgb(0%,0%,0%);stroke-opacity:1;stroke-miterlimit:10;" d="M 51.125 53.8125 C 51.125 56.476562 47.125 56.476562 47.125 53.8125 C 47.125 51.144531 51.125 51.144531 51.125 53.8125 "/>
<path style="fill-rule:nonzero;fill:rgb(62.745098%,12.54902%,94.117647%);fill-opacity:1;stroke-width:1;stroke-linecap:butt;stroke-linejoin:miter;stroke:rgb(0%,0%,0%);stroke-opacity:1;stroke-miterlimit:10;" d="M 29.011719 20.140625 C 29.011719 22.808594 25.011719 22.808594 25.011719 20.140625 C 25.011719 17.476562 29.011719 17.476562 29.011719 20.140625 "/>
<path style="fill-rule:nonzero;fill:rgb(100%,64.705882%,0%);fill-opacity:1;stroke-width:1;stroke-linecap:butt;stroke-linejoin:miter;stroke:rgb(0%,0%,0%);stroke-opacity:1;stroke-miterlimit:10;" d="M 60.078125 46.445312 C 60.078125 49.113281 56.078125 49.113281 56.078125 46.445312 C 56.078125 43.78125 60.078125 43.78125 60.078125 46.445312 "/>
<path style="fill-rule:nonzero;fill:rgb(100%,64.705882%,0%);fill-opacity:1;stroke-width:1;stroke-linecap:butt;stroke-linejoin:miter;stroke:rgb(0%,0%,0%);stroke-opacity:1;stroke-miterlimit:10;" d="M 41.839844 59.28125 C 41.839844 61.949219 37.839844 61.949219 37.839844 59.28125 C 37.839844 56.617188 41.839844 56.617188 41.839844 59.28125 "/>
<path style="fill-rule:nonzero;fill:rgb(62.745098%,12.54902%,94.117647%);fill-opacity:1;stroke-width:1;stroke-linecap:butt;stroke-linejoin:miter;stroke:rgb(0%,0%,0%);stroke-opacity:1;stroke-miterlimit:10;" d="M 41.078125 35.636719 C 41.078125 38.304688 37.078125 38.304688 37.078125 35.636719 C 37.078125 32.972656 41.078125 32.972656 41.078125 35.636719 "/>
<path style="fill-rule:nonzero;fill:rgb(62.745098%,12.54902%,94.117647%);fill-opacity:1;stroke-width:1;stroke-linecap:butt;stroke-linejoin:miter;stroke:rgb(0%,0%,0%);stroke-opacity:1;stroke-miterlimit:10;" d="M 27.648438 47.15625 C 27.648438 49.824219 23.648438 49.824219 23.648438 47.15625 C 23.648438 44.488281 27.648438 44.488281 27.648438 47.15625 "/>
<path style="fill-rule:nonzero;fill:rgb(62.745098%,12.54902%,94.117647%);fill-opacity:1;stroke-width:1;stroke-linecap:butt;stroke-linejoin:miter;stroke:rgb(0%,0%,0%);stroke-opacity:1;stroke-miterlimit:10;" d="M 22.679688 33.753906 C 22.679688 36.421875 18.679688 36.421875 18.679688 33.753906 C 18.679688 31.085938 22.679688 31.085938 22.679688 33.753906 "/>
<path style="fill-rule:nonzero;fill:rgb(62.745098%,12.54902%,94.117647%);fill-opacity:1;stroke-width:1;stroke-linecap:butt;stroke-linejoin:miter;stroke:rgb(0%,0%,0%);stroke-opacity:1;stroke-miterlimit:10;" d="M 13.179688 22.316406 C 13.179688 24.980469 9.179688 24.980469 9.179688 22.316406 C 9.179688 19.648438 13.179688 19.648438 13.179688 22.316406 "/>
<path style="fill-rule:nonzero;fill:rgb(62.745098%,12.54902%,94.117647%);fill-opacity:1;stroke-width:1;stroke-linecap:butt;stroke-linejoin:miter;stroke:rgb(0%,0%,0%);stroke-opacity:1;stroke-miterlimit:10;" d="M 44.46875 10 C 44.46875 12.667969 40.46875 12.667969 40.46875 10 C 40.46875 7.332031 44.46875 7.332031 44.46875 10 "/>
<path style="fill-rule:nonzero;fill:rgb(62.745098%,12.54902%,94.117647%);fill-opacity:1;stroke-width:1;stroke-linecap:butt;stroke-linejoin:miter;stroke:rgb(0%,0%,0%);stroke-opacity:1;stroke-miterlimit:10;" d="M 61.28125 24.945312 C 61.28125 27.613281 57.28125 27.613281 57.28125 24.945312 C 57.28125 22.277344 61.28125 22.277344 61.28125 24.945312 "/>
<path style="fill-rule:nonzero;fill:rgb(62.745098%,12.54902%,94.117647%);fill-opacity:1;stroke-width:1;stroke-linecap:butt;stroke-linejoin:miter;stroke:rgb(0%,0%,0%);stroke-opacity:1;stroke-miterlimit:10;" d="M 51.84375 19.074219 C 51.84375 21.742188 47.84375 21.742188 47.84375 19.074219 C 47.84375 16.40625 51.84375 16.40625 51.84375 19.074219 "/>
<path style="fill-rule:nonzero;fill:rgb(100%,64.705882%,0%);fill-opacity:1;stroke-width:1;stroke-linecap:butt;stroke-linejoin:miter;stroke:rgb(0%,0%,0%);stroke-opacity:1;stroke-miterlimit:10;" d="M 12 43.097656 C 12 45.765625 8 45.765625 8 43.097656 C 8 40.433594 12 40.433594 12 43.097656 "/>
</g>
</svg>
